<svg data-name="Group 2" xmlns="http://www.w3.org/2000/svg" width="260" height="21.656" viewBox="0 0 260 21.656"><path data-name="Path 6" d="M13.322 6.44a5.025 5.025 0 0 0-2.778-4.356 8.438 8.438 0 0 0-3.473-.568H5.935v8.46H6.5a3.43 3.43 0 0 0 2.9-2.21 6.338 6.338 0 0 0 .379-2.084h.631c.126 1.326-.189 1.578-.189 4.735a13.364 13.364 0 0 0 .126 2.336c.063.884.126 1.263.126 2.21h-.624a4.845 4.845 0 0 0-.884-2.967 2.673 2.673 0 0 0-2.273-1.263h-.757v9.471H7.7c4.356 0 6.061-2.967 6.187-5.619h.631l-.253 4.925c0 .821.189 1.515-1.768 1.515H0v-.567l1.831-.253c.442 0 .821-.063.821-.568V2.021c0-.505-.379-.568-.821-.568L0 1.326V.758h12.691c.695 0 1.073.126 1.136 1.578l.189 4.167h-.695z" fill="#fff"/><path data-name="Path 7" d="M17.426 13.7a10.537 10.537 0 0 0 1.768 4.356 5.276 5.276 0 0 0 4.483 2.652 3.245 3.245 0 0 0 3.473-3.346c0-2.525-2.084-3.851-4.293-5.367l-2.21-1.515a7.339 7.339 0 0 1-3.031-5.43 4.7 4.7 0 0 1 4.862-4.8 12.091 12.091 0 0 1 2.589.316 10.019 10.019 0 0 0 1.764.381.735.735 0 0 0 .76-.821V0h.758l.631 6.124h-.631c-.818-3.03-3.41-5.177-6.062-5.177a2.322 2.322 0 0 0-2.589 2.462 4.974 4.974 0 0 0 2.4 3.851l2.4 1.515c4.23 2.778 5.177 5.114 5.177 7.008 0 3.536-3.157 5.619-6.314 5.619a10.938 10.938 0 0 1-6.187-2.147l-.443-5.617h.695z" fill="#fff"/><path data-name="Path 8" d="M45.017 6.44a5.025 5.025 0 0 0-2.778-4.356 8.438 8.438 0 0 0-3.473-.568H37.63v8.46h.565a3.43 3.43 0 0 0 2.9-2.21 6.338 6.338 0 0 0 .379-2.084h.631c.126 1.326-.189 1.578-.189 4.735a13.364 13.364 0 0 0 .126 2.336c.063.884.126 1.263.126 2.21h-.631a4.845 4.845 0 0 0-.884-2.967 2.673 2.673 0 0 0-2.273-1.263h-.685v9.471h1.768c4.356 0 6.061-2.967 6.187-5.619h.631l-.253 4.925c0 .821.189 1.515-1.768 1.515H31.695v-.567l1.831-.126c.442 0 .821-.063.821-.568V2.021c0-.505-.379-.568-.821-.568l-1.831-.127V.758h12.691c.695 0 1.073.126 1.136 1.578l.189 4.167h-.695z" fill="#fff"/><path data-name="Path 9" d="M52.846 3.536l.189 14.648a1.864 1.864 0 0 0 1.955 2.084H56v.568h-7.131v-.568l1.01-.063a1.849 1.849 0 0 0 1.957-2.084l.19-15.216a2.594 2.594 0 0 0-2.652-1.642h-.884V.821h.442c2.02-.126 2.525-.126 2.841-.126a5.2 5.2 0 0 1 4.925 2.841l8.145 13.069h.442l-.19-13.132a1.848 1.848 0 0 0-1.957-2.084l-1.01-.063V.758h7.071v.568l-1.01.063c-.884.063-1.894.316-1.957 2.084l-.316 18.184h-1.263L53.036 3.536z" fill="#fff"/><path data-name="Path 10" d="M70.966 7.258l.442-5.556a.946.946 0 0 1 1.01-.947h12.438a.912.912 0 0 1 1.01.947l.442 5.556h-.631c-.947-5.556-3.725-5.746-4.925-5.746h-.442v18.12c0 .442.379.568.821.568l2.147.126v.568H74.06v-.568l2.147-.126c.442 0 .821-.126.821-.568V1.453h-.442c-1.2 0-3.978.189-4.925 5.746h-.695z" fill="#fff"/><path data-name="Path 11" d="M86.498 20.267c.631 0 1.452-.379 2.084-2.02l6.124-17.3L96.663 0l5.367 18.878a1.722 1.722 0 0 0 1.2 1.326l1.01.063v.633h-7.955v-.631l2.02-.189c.316 0 .568-.316.379-.947l-1.452-6h-5.619l-1.642 5.177a3.238 3.238 0 0 0-.189 1.01.778.778 0 0 0 .821.821l1.263.126v.633h-5.747v-.631zm10.481-7.892L94.832 4.1h-.379l-2.652 8.271z" fill="#fff"/><path data-name="Path 12" d="M112.069 1.516c-.568.063-.568.189-.568.631v17.3c0 .505 0 .695.631.758l2.21.189v.564h-8.902v-.568l2.147-.189c.631-.063.631-.379.631-.821V2.021c0-.505-.189-.505-.821-.568l-1.831-.189V.758h8.713v.568z" fill="#fff"/><path data-name="Path 13" d="M135.871 20.33a9.786 9.786 0 0 1-4.42 1.136 8.041 8.041 0 0 1-7.135-4.293 11.717 11.717 0 0 1-1.452-6 14.451 14.451 0 0 1 1.263-6.061 8.31 8.31 0 0 1 7.2-4.862 10.73 10.73 0 0 1 2.838.445 5.158 5.158 0 0 0 1.389.316.677.677 0 0 0 .695-.758V0h1.073l.316 7.008h-.631a7.611 7.611 0 0 0-.758-2.9 5.335 5.335 0 0 0-4.545-3.161c-4.041 0-5.051 5.872-5.051 9.534 0 9.471 4.1 10.165 5.3 10.165a3.977 3.977 0 0 0 2.21-.695 2.023 2.023 0 0 0 1.01-1.452v-4.735c0-.505-.379-.568-.821-.568l-1.831-.126v-.57h8.208v.568l-1.389.126c-.442.063-.821.063-.821.568v4.672a13.445 13.445 0 0 1-2.652 1.894" fill="#fff"/><path data-name="Path 14" d="M158.475 4.735a14.232 14.232 0 0 1 1.326 6.061 14.035 14.035 0 0 1-1.326 6.061 8.275 8.275 0 0 1-14.774 0 14.232 14.232 0 0 1-1.326-6.061 14.035 14.035 0 0 1 1.326-6.061 8.275 8.275 0 0 1 14.774 0m-12.5 6.124c0 6.314 2.02 9.849 5.114 9.849s5.114-3.536 5.114-9.849-2.02-9.849-5.114-9.849-5.114 3.472-5.114 9.849" fill="#fff"/><path data-name="Path 15" d="M167.946 14.333c0 2.02.189 3.725 1.326 4.925a4.384 4.384 0 0 0 3.22 1.389 4.647 4.647 0 0 0 3.851-1.831 7.111 7.111 0 0 0 1.137-4.293v-.379l-.126-10.733a1.848 1.848 0 0 0-1.957-2.084l-1.01-.063V.758h7.071v.568l-1.01.063a1.843 1.843 0 0 0-1.957 2.084v9.6c0 2.336-.253 4.925-1.894 6.629a6.019 6.019 0 0 1-4.672 1.7 6.96 6.96 0 0 1-4.23-1.326 7.438 7.438 0 0 1-2.967-6.251V2.021c0-.505-.379-.568-.821-.568l-1.833-.127V.758h8.65v.568l-1.831.126c-.442 0-.821.063-.821.568v12.313z" fill="#fff"/><path data-name="Path 16" d="M192.314.758a7.683 7.683 0 0 1 4.672 1.326 4.24 4.24 0 0 1 1.578 3.409 4.593 4.593 0 0 1-2.084 3.978 7.874 7.874 0 0 1-3.6 1.073v.314a4.463 4.463 0 0 1 2.9 1.389 21.367 21.367 0 0 1 2.147 3.788 26.592 26.592 0 0 0 1.831 3.346 1.747 1.747 0 0 0 1.515 1.01h.379v.567c-.253 0-1.073.189-1.515.189a4.044 4.044 0 0 1-3.6-1.7c-1.642-2.084-2.778-4.925-3.914-6.756a3.431 3.431 0 0 0-2.4-1.894h-.809v8.776c0 .505.379.568.821.568l1.831.126v.568h-8.652v-.568l1.831-.126c.442 0 .821-.063.821-.568V2.021c0-.505-.379-.568-.821-.568l-1.831-.127V.758zm-3.031 9.344h1.073a7.511 7.511 0 0 0 3.914-1.073 3.34 3.34 0 0 0 1.073-2.9v-.571a4.215 4.215 0 0 0-.884-2.9 4.369 4.369 0 0 0-3.536-1.136 3.729 3.729 0 0 0-1.642.253v8.334z" fill="#fff"/><path data-name="Path 17" d="M222.749 1.453c-.505 0-.568.316-.568.631v17.489c0 .505.379.568.821.568l1.831.126v.568h-8.65v-.568l1.831-.126c.442 0 .821-.063.821-.568V4.104h-.379l-5.493 16.791h-.695l-5.809-17.548h-.442l.189 14.837a1.848 1.848 0 0 0 1.957 2.084l1.01.063v.564h-7.07v-.568l1.01-.063c.884-.063 1.894-.316 1.957-2.084l.189-15.595c0-.568 0-1.2-1.515-1.2h-1.389V.821h.884c1.01 0 1.894-.126 2.9-.126 1.389 0 2.715.063 3.473 2.525l3.662 12h.379l4.42-12.059c.695-1.831 1.326-2.336 3.473-2.336h3.22v.568z" fill="#fff"/><path data-name="Path 18" d="M240.806 6.44a5.026 5.026 0 0 0-2.778-4.356 8.438 8.438 0 0 0-3.473-.568h-1.136v8.46h.568a3.431 3.431 0 0 0 2.9-2.21 6.338 6.338 0 0 0 .379-2.084h.631c.126 1.326-.189 1.578-.189 4.735a13.363 13.363 0 0 0 .126 2.336c.063.884.126 1.263.126 2.21h-.631a4.845 4.845 0 0 0-.884-2.967 2.673 2.673 0 0 0-2.273-1.263h-.688v9.471h1.768c4.356 0 6.061-2.967 6.187-5.619h.631l-.253 4.925c0 .821.189 1.515-1.768 1.515h-12.565v-.567l1.831-.126c.442 0 .821-.063.821-.568V2.021c0-.505-.379-.568-.821-.568l-1.831-.127V.758h12.691c.694 0 1.073.126 1.136 1.578l.189 4.167h-.695z" fill="#fff"/><path data-name="Path 19" d="M244.658 7.258l.442-5.556a.946.946 0 0 1 1.01-.947h12.438a.912.912 0 0 1 1.01.947L260 7.258h-.631c-.947-5.556-3.725-5.746-4.925-5.746h-.442v18.12c0 .442.379.568.821.568l2.147.126v.568h-9.218v-.568l2.147-.126c.442 0 .821-.126.821-.568V1.453h-.442c-1.2 0-3.978.189-4.925 5.746h-.695z" fill="#fff"/></svg>